# xmcd
#
# Track frame offsets: 
#        150
#        31262
#        57512
#        88787
#        108740
#        126525
#        150675
#        203775
#
# Disc length: 3739 seconds
#
# Revision: 5
# Processed by: cddbd v1.5.2PL0 Copyright (c) Steve Scherf et al.
# Submitted via: ExactAudioCopy v1.1
#
DISCID=710e9908
DTITLE=Schnittke, Alfred - Alfred Schnittke Edition Vol. 4
DYEAR=1989
DGENRE=Classical
TTITLE0=In Memoriam - I. Moderato
TTITLE1=In Memoriam - II. Tempo di valse
TTITLE2=In Memoriam - III. Andante
TTITLE3=In Memoriam - IV. Lento
TTITLE4=In Memoriam - V. Moderato pastorale
TTITLE5=Viola Concerto - I. Largo
TTITLE6=Viola Concerto - II. Allegro molto
TTITLE7=Viola Concerto - III. Largo
EXTD=Nobuko Imai: viola - Malmo SO/ Lev Markiz
EXTT0=
EXTT1=
EXTT2=
EXTT3=
EXTT4=
EXTT5=
EXTT6=
EXTT7=
PLAYORDER=
